<svg id="Layer_1" data-name="Layer 1" xmlns="http://www.w3.org/2000/svg" xmlns:xlink="http://www.w3.org/1999/xlink" viewBox="0 0 1920 1080"><defs><style>.cls-1{fill:#231f20;}.cls-2{clip-path:url(#clip-path);}.cls-3{clip-path:url(#clip-path-2);}.cls-4{clip-path:url(#clip-path-3);}.cls-5{clip-path:url(#clip-path-4);}.cls-6{clip-path:url(#clip-path-5);}</style><clipPath id="clip-path"><path class="cls-1" d="M733.6,524.26a89.59,89.59,0,0,1-31.5-5.4,74.29,74.29,0,0,1-25.1-15.3,70.14,70.14,0,0,1-16.5-23.3,75.46,75.46,0,0,1,0-58.5,70.56,70.56,0,0,1,16.5-23.2,74.29,74.29,0,0,1,25.1-15.3,94.87,94.87,0,0,1,63.1,0,74.53,74.53,0,0,1,25,15.3,70.56,70.56,0,0,1,16.5,23.2,75.46,75.46,0,0,1,0,58.5,70.14,70.14,0,0,1-16.5,23.3,74.53,74.53,0,0,1-25,15.3A89.32,89.32,0,0,1,733.6,524.26Zm0-38.2a31.37,31.37,0,0,0,12.3-2.4,29.59,29.59,0,0,0,10-6.9,31.35,31.35,0,0,0,6.7-11,46.22,46.22,0,0,0,0-29.4,31.44,31.44,0,0,0-6.7-11,29.59,29.59,0,0,0-10-6.9,32.72,32.72,0,0,0-24.6,0,29.59,29.59,0,0,0-10,6.9,31.44,31.44,0,0,0-6.7,11,46.22,46.22,0,0,0,0,29.4,31.35,31.35,0,0,0,6.7,11,29.59,29.59,0,0,0,10,6.9A31.37,31.37,0,0,0,733.6,486.06Z"/></clipPath><clipPath id="clip-path-2"><path class="cls-1" d="M886.2,523.06q-18.6,0-32.9-7.3a56.69,56.69,0,0,1-22.5-20.1q-8.2-12.8-8.2-29.4t8.2-29.4a56.09,56.09,0,0,1,22.5-20q14.3-7.2,32.9-7.2t33,7.2a55.19,55.19,0,0,1,22.5,20q8.1,12.81,8.1,29.4t-8.1,29.4a55.77,55.77,0,0,1-22.5,20.1Q904.8,523.07,886.2,523.06Zm0-35.2a17.17,17.17,0,0,0,9-2.4,16.82,16.82,0,0,0,6.4-7.3,26.83,26.83,0,0,0,2.4-11.9,26.09,26.09,0,0,0-2.4-11.9,17.11,17.11,0,0,0-30.8,0,26.09,26.09,0,0,0-2.4,11.9,26.83,26.83,0,0,0,2.4,11.9,16.82,16.82,0,0,0,6.4,7.3A17.17,17.17,0,0,0,886.2,487.86Z"/></clipPath><clipPath id="clip-path-3"><path class="cls-1" d="M964,559.86V411.66h43v14.8l.2,40,2,40v53.4Zm73-36.8q-14.21,0-23.5-6.1t-13.7-18.6q-4.39-12.5-4.4-31.9,0-19.8,4.1-32.3t13.3-18.5q9.19-6,24.2-6a52,52,0,0,1,26.4,6.9,51.24,51.24,0,0,1,19.2,19.6q7.2,12.7,7.2,30.3t-7.2,30.3a50.42,50.42,0,0,1-19.2,19.5A52.55,52.55,0,0,1,1037,523.06Zm-10.8-35.2a17.17,17.17,0,0,0,9-2.4,16.93,16.93,0,0,0,6.4-7.2,26.2,26.2,0,0,0,2.4-11.8,26.72,26.72,0,0,0-2.4-12,16.93,16.93,0,0,0-6.4-7.2,18.07,18.07,0,0,0-18,0,16.93,16.93,0,0,0-6.4,7.2,26.72,26.72,0,0,0-2.4,12,26.2,26.2,0,0,0,2.4,11.8,16.93,16.93,0,0,0,6.4,7.2A17.17,17.17,0,0,0,1026.2,487.86Z"/></clipPath><clipPath id="clip-path-4"><path class="cls-1" d="M1146.8,523.06a127.73,127.73,0,0,1-27.6-3q-13.6-3-22-7.8l12.4-29.8a68.15,68.15,0,0,0,18.1,7.2,81.56,81.56,0,0,0,20.1,2.6c5.46,0,9.17-.46,11.1-1.4s2.9-2.2,2.9-3.8-1.13-2.76-3.4-3.5a46.5,46.5,0,0,0-9-1.7c-3.73-.4-7.84-.9-12.3-1.5a109.67,109.67,0,0,1-13.5-2.7,43.09,43.09,0,0,1-12.4-5.4,26.86,26.86,0,0,1-9-9.7q-3.4-6.09-3.4-15.5a30.57,30.57,0,0,1,6.3-18.8q6.3-8.4,18.8-13.5t30.9-5.1a133.44,133.44,0,0,1,24,2.2,70.8,70.8,0,0,1,20.6,6.8l-12.4,29.8a60.61,60.61,0,0,0-16.5-6.3,74.06,74.06,0,0,0-15.1-1.7c-5.73,0-9.64.54-11.7,1.6s-3.1,2.27-3.1,3.6q0,2.4,3.4,3.6a40.76,40.76,0,0,0,9,1.8q5.6.6,12.3,1.5a97.11,97.11,0,0,1,13.4,2.8,45.76,45.76,0,0,1,12.3,5.5,26.94,26.94,0,0,1,9,9.7q3.39,6.1,3.4,15.5a30.45,30.45,0,0,1-6.2,18.3q-6.21,8.5-18.8,13.6T1146.8,523.06Z"/></clipPath><clipPath id="clip-path-5"><path class="cls-1" d="M1220.4,467.46l-9-86.4h54l-9,86.4Zm18,55.6q-11.61,0-19-7.1a22.59,22.59,0,0,1-7.4-16.9,21.91,21.91,0,0,1,7.4-16.8q7.39-6.79,19-6.8,11.79,0,19.1,6.8a22.09,22.09,0,0,1,7.3,16.8,22.78,22.78,0,0,1-7.3,16.9Q1250.2,523.07,1238.4,523.06Z"/></clipPath><image id="image" width="3000" height="2000" xlink:href="C:%5CUsers%5CUSER%5CDownloads%5C14237502_5438849.jpg"/></defs><path class="cls-1" d="M733.6,524.26a89.59,89.59,0,0,1-31.5-5.4,74.29,74.29,0,0,1-25.1-15.3,70.14,70.14,0,0,1-16.5-23.3,75.46,75.46,0,0,1,0-58.5,70.56,70.56,0,0,1,16.5-23.2,74.29,74.29,0,0,1,25.1-15.3,94.87,94.87,0,0,1,63.1,0,74.53,74.53,0,0,1,25,15.3,70.56,70.56,0,0,1,16.5,23.2,75.46,75.46,0,0,1,0,58.5,70.14,70.14,0,0,1-16.5,23.3,74.53,74.53,0,0,1-25,15.3A89.32,89.32,0,0,1,733.6,524.26Zm0-38.2a31.37,31.37,0,0,0,12.3-2.4,29.59,29.59,0,0,0,10-6.9,31.35,31.35,0,0,0,6.7-11,46.22,46.22,0,0,0,0-29.4,31.44,31.44,0,0,0-6.7-11,29.59,29.59,0,0,0-10-6.9,32.72,32.72,0,0,0-24.6,0,29.59,29.59,0,0,0-10,6.9,31.44,31.44,0,0,0-6.7,11,46.22,46.22,0,0,0,0,29.4,31.35,31.35,0,0,0,6.7,11,29.59,29.59,0,0,0,10,6.9A31.37,31.37,0,0,0,733.6,486.06Z"/><g class="cls-2"><use transform="translate(-18.84 -146.5) scale(0.69)" xlink:href="#image"/></g><path class="cls-1" d="M886.2,523.06q-18.6,0-32.9-7.3a56.69,56.69,0,0,1-22.5-20.1q-8.2-12.8-8.2-29.4t8.2-29.4a56.09,56.09,0,0,1,22.5-20q14.3-7.2,32.9-7.2t33,7.2a55.19,55.19,0,0,1,22.5,20q8.1,12.81,8.1,29.4t-8.1,29.4a55.77,55.77,0,0,1-22.5,20.1Q904.8,523.07,886.2,523.06Zm0-35.2a17.17,17.17,0,0,0,9-2.4,16.82,16.82,0,0,0,6.4-7.3,26.83,26.83,0,0,0,2.4-11.9,26.09,26.09,0,0,0-2.4-11.9,17.11,17.11,0,0,0-30.8,0,26.09,26.09,0,0,0-2.4,11.9,26.83,26.83,0,0,0,2.4,11.9,16.82,16.82,0,0,0,6.4,7.3A17.17,17.17,0,0,0,886.2,487.86Z"/><g class="cls-3"><use transform="translate(-18.84 -146.5) scale(0.69)" xlink:href="#image"/></g><path class="cls-1" d="M964,559.86V411.66h43v14.8l.2,40,2,40v53.4Zm73-36.8q-14.21,0-23.5-6.1t-13.7-18.6q-4.39-12.5-4.4-31.9,0-19.8,4.1-32.3t13.3-18.5q9.19-6,24.2-6a52,52,0,0,1,26.4,6.9,51.24,51.24,0,0,1,19.2,19.6q7.2,12.7,7.2,30.3t-7.2,30.3a50.42,50.42,0,0,1-19.2,19.5A52.55,52.55,0,0,1,1037,523.06Zm-10.8-35.2a17.17,17.17,0,0,0,9-2.4,16.93,16.93,0,0,0,6.4-7.2,26.2,26.2,0,0,0,2.4-11.8,26.72,26.72,0,0,0-2.4-12,16.93,16.93,0,0,0-6.4-7.2,18.07,18.07,0,0,0-18,0,16.93,16.93,0,0,0-6.4,7.2,26.72,26.72,0,0,0-2.4,12,26.2,26.2,0,0,0,2.4,11.8,16.93,16.93,0,0,0,6.4,7.2A17.17,17.17,0,0,0,1026.2,487.86Z"/><g class="cls-4"><use transform="translate(-18.84 -146.5) scale(0.69)" xlink:href="#image"/></g><path class="cls-1" d="M1146.8,523.06a127.73,127.73,0,0,1-27.6-3q-13.6-3-22-7.8l12.4-29.8a68.15,68.15,0,0,0,18.1,7.2,81.56,81.56,0,0,0,20.1,2.6c5.46,0,9.17-.46,11.1-1.4s2.9-2.2,2.9-3.8-1.13-2.76-3.4-3.5a46.5,46.5,0,0,0-9-1.7c-3.73-.4-7.84-.9-12.3-1.5a109.67,109.67,0,0,1-13.5-2.7,43.09,43.09,0,0,1-12.4-5.4,26.86,26.86,0,0,1-9-9.7q-3.4-6.09-3.4-15.5a30.57,30.57,0,0,1,6.3-18.8q6.3-8.4,18.8-13.5t30.9-5.1a133.44,133.44,0,0,1,24,2.2,70.8,70.8,0,0,1,20.6,6.8l-12.4,29.8a60.61,60.61,0,0,0-16.5-6.3,74.06,74.06,0,0,0-15.1-1.7c-5.73,0-9.64.54-11.7,1.6s-3.1,2.27-3.1,3.6q0,2.4,3.4,3.6a40.76,40.76,0,0,0,9,1.8q5.6.6,12.3,1.5a97.11,97.11,0,0,1,13.4,2.8,45.76,45.76,0,0,1,12.3,5.5,26.94,26.94,0,0,1,9,9.7q3.39,6.1,3.4,15.5a30.45,30.45,0,0,1-6.2,18.3q-6.21,8.5-18.8,13.6T1146.8,523.06Z"/><g class="cls-5"><use transform="translate(-18.84 -146.5) scale(0.69)" xlink:href="#image"/></g><path class="cls-1" d="M1220.4,467.46l-9-86.4h54l-9,86.4Zm18,55.6q-11.61,0-19-7.1a22.59,22.59,0,0,1-7.4-16.9,21.91,21.91,0,0,1,7.4-16.8q7.39-6.79,19-6.8,11.79,0,19.1,6.8a22.09,22.09,0,0,1,7.3,16.8,22.78,22.78,0,0,1-7.3,16.9Q1250.2,523.07,1238.4,523.06Z"/><g class="cls-6"><use transform="translate(-18.84 -146.5) scale(0.69)" xlink:href="#image"/></g><path class="cls-1" d="M509.83,608h16v5.46H503.07v-29.4h22.22v5.46H509.83Zm-.5-12.14h14.15v5.34H509.33Z"/><path class="cls-1" d="M531.25,613.46v-29.4H544a16.57,16.57,0,0,1,6.8,1.28,9.92,9.92,0,0,1,4.41,3.68,11.12,11.12,0,0,1,0,11.36,9.72,9.72,0,0,1-4.41,3.61,16.92,16.92,0,0,1-6.8,1.24h-9l3.11-2.94v11.17ZM538.1,603,535,599.81h8.61a7.16,7.16,0,0,0,4.7-1.34,4.67,4.67,0,0,0,1.6-3.78,4.58,4.58,0,0,0-1.6-3.76,7.16,7.16,0,0,0-4.7-1.33H535l3.11-3.23ZM550,613.46l-7.39-10.67h7.31l7.39,10.67Z"/><path class="cls-1" d="M576.44,614a17.61,17.61,0,0,1-6.42-1.13,15.7,15.7,0,0,1-5.13-3.19,14.49,14.49,0,0,1-3.38-4.83,16,16,0,0,1,0-12.12,14.62,14.62,0,0,1,3.38-4.81,15.71,15.71,0,0,1,5.11-3.19,17.42,17.42,0,0,1,6.4-1.13,17.9,17.9,0,0,1,6.41,1.11,15.39,15.39,0,0,1,5.1,3.17,14.49,14.49,0,0,1,3.38,4.83,16,16,0,0,1,0,12.16,14.47,14.47,0,0,1-3.38,4.85,15.39,15.39,0,0,1-5.1,3.17A17.8,17.8,0,0,1,576.44,614Zm0-5.75a9.32,9.32,0,0,0,3.63-.69,8.84,8.84,0,0,0,2.92-2,9.14,9.14,0,0,0,2-3,10.81,10.81,0,0,0,0-7.6,9.25,9.25,0,0,0-2-3,8.69,8.69,0,0,0-2.92-2,9.32,9.32,0,0,0-3.63-.69,9.49,9.49,0,0,0-3.65.69,8.4,8.4,0,0,0-2.92,2,9.17,9.17,0,0,0-1.93,3,10.66,10.66,0,0,0,0,7.6,9.06,9.06,0,0,0,1.93,3,8.54,8.54,0,0,0,2.92,2A9.49,9.49,0,0,0,576.4,608.21Z"/><path class="cls-1" d="M597.61,613.46v-29.4h12.73a16.57,16.57,0,0,1,6.8,1.28,9.7,9.7,0,0,1,6,9.35,10.14,10.14,0,0,1-1.55,5.69,9.83,9.83,0,0,1-4.41,3.61,16.92,16.92,0,0,1-6.8,1.24h-9l3.11-2.94v11.17ZM604.46,603l-3.11-3.23H610a7.16,7.16,0,0,0,4.7-1.34,4.67,4.67,0,0,0,1.6-3.78,4.58,4.58,0,0,0-1.6-3.76,7.16,7.16,0,0,0-4.7-1.33h-8.61l3.11-3.23Zm11.88,10.42L609,602.79h7.31l7.39,10.67Z"/><path class="cls-1" d="M628.52,613.46v-29.4h12.73a16.57,16.57,0,0,1,6.8,1.28,9.92,9.92,0,0,1,4.41,3.68,11.12,11.12,0,0,1,0,11.36,9.72,9.72,0,0,1-4.41,3.61,16.92,16.92,0,0,1-6.8,1.24h-9l3.11-2.94v11.17ZM635.37,603l-3.11-3.23h8.61a7.16,7.16,0,0,0,4.7-1.34,4.67,4.67,0,0,0,1.6-3.78,4.58,4.58,0,0,0-1.6-3.76,7.16,7.16,0,0,0-4.7-1.33h-8.61l3.11-3.23Zm11.88,10.42-7.39-10.67h7.31l7.39,10.67Z"/><path class="cls-1" d="M662,613.8a4,4,0,0,1-2.92-1.14A3.63,3.63,0,0,1,658,610a3.48,3.48,0,0,1,1.16-2.66,4.09,4.09,0,0,1,2.92-1.07,4,4,0,0,1,2.88,1.07A3.54,3.54,0,0,1,666,610a3.7,3.7,0,0,1-1.11,2.69A3.87,3.87,0,0,1,662,613.8Zm-2.65-10.59-1.26-19.15h7.77l-1.3,19.15Z"/><path class="cls-1" d="M683.5,613.46v-29.4h12.73a16.57,16.57,0,0,1,6.8,1.28,9.7,9.7,0,0,1,6,9.35,9.67,9.67,0,0,1-6,9.36,16.24,16.24,0,0,1-6.8,1.3h-9l3.11-3.06v11.17ZM690.35,603l-3.11-3.23h8.61a7.16,7.16,0,0,0,4.7-1.34,4.67,4.67,0,0,0,1.6-3.78,4.58,4.58,0,0,0-1.6-3.76,7.16,7.16,0,0,0-4.7-1.33h-8.61l3.11-3.23Z"/><path class="cls-1" d="M713.78,613.46v-29.4h6.85v23.86h14.66v5.54Z"/><path class="cls-1" d="M746,608h16v5.46H739.19v-29.4h22.22v5.46H746Zm-.5-12.14H759.6v5.34H745.45Z"/><path class="cls-1" d="M763.51,613.46l13.06-29.4h6.72l13.19,29.4h-7.14l-10.8-26h2.73l-10.79,26Zm6.59-6.3,1.72-5.17H787l1.76,5.17Z"/><path class="cls-1" d="M809.25,614a24.21,24.21,0,0,1-6.79-.94,15.82,15.82,0,0,1-5.23-2.46l2.31-5.12a17.46,17.46,0,0,0,9.71,3.06,10.34,10.34,0,0,0,3.25-.42,4,4,0,0,0,1.83-1.11,2.43,2.43,0,0,0,.59-1.62,2.2,2.2,0,0,0-.93-1.86,7.26,7.26,0,0,0-2.45-1.14c-1-.29-2.14-.57-3.34-.84s-2.42-.59-3.64-1A14.6,14.6,0,0,1,801.2,599a7,7,0,0,1-2.43-2.48,7.47,7.47,0,0,1-.91-3.84,8.28,8.28,0,0,1,1.35-4.6,9.24,9.24,0,0,1,4.09-3.32,17,17,0,0,1,6.91-1.23,22.53,22.53,0,0,1,5.48.67,16.34,16.34,0,0,1,4.73,1.93l-2.14,5.12a17.56,17.56,0,0,0-4.08-1.7,15.76,15.76,0,0,0-4-.56,9.56,9.56,0,0,0-3.23.44,3.73,3.73,0,0,0-1.79,1.19,2.75,2.75,0,0,0-.57,1.68,2.25,2.25,0,0,0,.93,1.89,6.77,6.77,0,0,0,2.43,1.12c1,.26,2.13.53,3.36.79s2.45.6,3.66,1a16.43,16.43,0,0,1,3.32,1.49,7.33,7.33,0,0,1,2.45,2.44,7.12,7.12,0,0,1,.95,3.8,8.08,8.08,0,0,1-1.37,4.54,9.54,9.54,0,0,1-4.13,3.31A16.77,16.77,0,0,1,809.25,614Z"/><path class="cls-1" d="M833.06,608h16v5.46H826.3v-29.4h22.22v5.46H833.06Zm-.5-12.14h14.15v5.34H832.56Z"/><path class="cls-1" d="M879.43,614q-6.25,0-9.79-3.48t-3.53-10V584.06H873v16.25q0,4.17,1.72,6a7.12,7.12,0,0,0,9.62,0q1.73-1.86,1.72-6V584.06h6.68v16.42q0,6.51-3.53,10T879.43,614Z"/><path class="cls-1" d="M909.16,614a24.19,24.19,0,0,1-6.78-.94,15.82,15.82,0,0,1-5.23-2.46l2.31-5.12a16.22,16.22,0,0,0,4.45,2.2,16.5,16.5,0,0,0,5.25.86,10.41,10.41,0,0,0,3.26-.42,4.14,4.14,0,0,0,1.83-1.11,2.42,2.42,0,0,0,.58-1.62,2.19,2.19,0,0,0-.92-1.86,7.41,7.41,0,0,0-2.46-1.14c-1-.29-2.13-.57-3.34-.84s-2.41-.59-3.63-1a14.23,14.23,0,0,1-3.36-1.51,7.15,7.15,0,0,1-2.44-2.48,7.47,7.47,0,0,1-.9-3.84,8.28,8.28,0,0,1,1.35-4.6,9.24,9.24,0,0,1,4.09-3.32,17,17,0,0,1,6.91-1.23,22.59,22.59,0,0,1,5.48.67,16.34,16.34,0,0,1,4.73,1.93l-2.15,5.12a17.31,17.31,0,0,0-4.07-1.7,15.76,15.76,0,0,0-4-.56,9.62,9.62,0,0,0-3.24.44,3.75,3.75,0,0,0-1.78,1.19,2.75,2.75,0,0,0-.57,1.68,2.25,2.25,0,0,0,.93,1.89,6.69,6.69,0,0,0,2.43,1.12c1,.26,2.13.53,3.36.79s2.45.6,3.66,1a16.1,16.1,0,0,1,3.31,1.49,7.27,7.27,0,0,1,2.46,2.44,7.12,7.12,0,0,1,1,3.8,8.08,8.08,0,0,1-1.37,4.54,9.51,9.51,0,0,1-4.14,3.31A16.7,16.7,0,0,1,909.16,614Z"/><path class="cls-1" d="M933,608h16v5.46H926.22v-29.4h22.21v5.46H933Zm-.51-12.14h14.16v5.34H932.47Z"/><path class="cls-1" d="M972.37,613.46V589.6H963v-5.54h25.62v5.54h-9.4v23.86Z"/><path class="cls-1" d="M999.08,613.46h-6.84v-29.4h6.84Zm13.82-12.05H998.54v-5.76h14.36Zm-.5-17.35h6.8v29.4h-6.8Z"/><path class="cls-1" d="M1026.17,613.46v-29.4H1033v29.4Z"/><path class="cls-1" d="M1049.65,614a24.19,24.19,0,0,1-6.78-.94,15.82,15.82,0,0,1-5.23-2.46l2.31-5.12a16.22,16.22,0,0,0,4.45,2.2,16.5,16.5,0,0,0,5.25.86,10.41,10.41,0,0,0,3.26-.42,4,4,0,0,0,1.82-1.11,2.38,2.38,0,0,0,.59-1.62,2.21,2.21,0,0,0-.92-1.86,7.41,7.41,0,0,0-2.46-1.14c-1-.29-2.13-.57-3.34-.84s-2.41-.59-3.63-1a14.23,14.23,0,0,1-3.36-1.51,7.07,7.07,0,0,1-2.44-2.48,7.47,7.47,0,0,1-.9-3.84,8.35,8.35,0,0,1,1.34-4.6,9.33,9.33,0,0,1,4.1-3.32,17,17,0,0,1,6.91-1.23,22.59,22.59,0,0,1,5.48.67,16.16,16.16,0,0,1,4.72,1.93l-2.14,5.12a17.31,17.31,0,0,0-4.07-1.7,15.82,15.82,0,0,0-4-.56,9.58,9.58,0,0,0-3.24.44,3.7,3.7,0,0,0-1.78,1.19,2.75,2.75,0,0,0-.57,1.68,2.27,2.27,0,0,0,.92,1.89,6.83,6.83,0,0,0,2.44,1.12c1,.26,2.13.53,3.36.79s2.45.6,3.65,1a16.19,16.19,0,0,1,3.32,1.49,7.27,7.27,0,0,1,2.46,2.44,7.12,7.12,0,0,1,.94,3.8,8.07,8.07,0,0,1-1.36,4.54,9.51,9.51,0,0,1-4.14,3.31A16.77,16.77,0,0,1,1049.65,614Z"/><path class="cls-1" d="M1085.69,613.46l-9.66-29.4h7l8.36,26h-3.53l8.74-26h6.3l8.4,26H1108l8.57-26H1123l-9.66,29.4h-7.23l-7.47-22.85h1.93L1093,613.46Z"/><path class="cls-1" d="M1133.57,608h16v5.46h-22.76v-29.4H1149v5.46h-15.45Zm-.51-12.14h14.16v5.34h-14.16Z"/><path class="cls-1" d="M1155,613.46v-29.4h14.36q5.55,0,8.34,2.1a6.61,6.61,0,0,1,2.79,5.54,7.09,7.09,0,0,1-1.13,4,7.43,7.43,0,0,1-3.13,2.63,10.58,10.58,0,0,1-4.52.92l.8-1.76a12.22,12.22,0,0,1,4.89.92,7.71,7.71,0,0,1,3.34,2.69,7.46,7.46,0,0,1,1.22,4.33,6.82,6.82,0,0,1-3,5.9q-3,2.11-8.78,2.12Zm6.76-5.12h8a7.47,7.47,0,0,0,4-.89,3,3,0,0,0,1.38-2.73,3,3,0,0,0-1.38-2.77,7.47,7.47,0,0,0-4-.88h-8.48v-5h7.26a6.92,6.92,0,0,0,3.8-.86,2.91,2.91,0,0,0,1.32-2.62,2.87,2.87,0,0,0-1.32-2.61,7.11,7.11,0,0,0-3.8-.84h-6.76Z"/><path class="cls-1" d="M1199,613.46v-29.4h12.73a16.57,16.57,0,0,1,6.8,1.28,9.92,9.92,0,0,1,4.41,3.68,10.19,10.19,0,0,1-4.41,15,16.24,16.24,0,0,1-6.8,1.3h-9l3.11-3.06v11.17Zm6.85-10.42-3.11-3.23h8.61a7.16,7.16,0,0,0,4.7-1.34,4.67,4.67,0,0,0,1.6-3.78,4.58,4.58,0,0,0-1.6-3.76,7.16,7.16,0,0,0-4.7-1.33h-8.61l3.11-3.23Z"/><path class="cls-1" d="M1229.28,613.46v-29.4H1242a16.57,16.57,0,0,1,6.8,1.28,9.92,9.92,0,0,1,4.41,3.68,11.12,11.12,0,0,1,0,11.36,9.72,9.72,0,0,1-4.41,3.61,16.92,16.92,0,0,1-6.8,1.24h-9l3.11-2.94v11.17Zm6.85-10.42-3.11-3.23h8.61a7.21,7.21,0,0,0,4.71-1.34,4.69,4.69,0,0,0,1.59-3.78,4.61,4.61,0,0,0-1.59-3.76,7.21,7.21,0,0,0-4.71-1.33H1233l3.11-3.23ZM1248,613.46l-7.4-10.67h7.31l7.39,10.67Z"/><path class="cls-1" d="M1274.48,614a17.62,17.62,0,0,1-6.43-1.13,15.55,15.55,0,0,1-5.12-3.19,14.38,14.38,0,0,1-3.39-4.83,16,16,0,0,1,0-12.12,14.5,14.5,0,0,1,3.39-4.81,15.56,15.56,0,0,1,5.1-3.19,17.42,17.42,0,0,1,6.4-1.13,17.9,17.9,0,0,1,6.41,1.11,15.19,15.19,0,0,1,5.1,3.17,14.21,14.21,0,0,1,3.38,4.83,16,16,0,0,1,0,12.16,14.19,14.19,0,0,1-3.38,4.85,15.19,15.19,0,0,1-5.1,3.17A17.78,17.78,0,0,1,1274.48,614Zm0-5.75a9.4,9.4,0,0,0,3.64-.69,9,9,0,0,0,4.87-5,10.81,10.81,0,0,0,0-7.6,9.06,9.06,0,0,0-2-3,8.79,8.79,0,0,0-2.92-2,9.4,9.4,0,0,0-3.64-.69,9.53,9.53,0,0,0-3.65.69,8.49,8.49,0,0,0-2.92,2,9.33,9.33,0,0,0-1.93,3,10.81,10.81,0,0,0,0,7.6,9.22,9.22,0,0,0,1.93,3,8.64,8.64,0,0,0,2.92,2A9.53,9.53,0,0,0,1274.43,608.21Z"/><path class="cls-1" d="M1295.64,613.46v-29.4h12.73a16.57,16.57,0,0,1,6.8,1.28,9.92,9.92,0,0,1,4.41,3.68,10.19,10.19,0,0,1-4.41,15,16.24,16.24,0,0,1-6.8,1.3h-9l3.11-3.06v11.17Zm6.85-10.42-3.11-3.23H1308a7.21,7.21,0,0,0,4.71-1.34,4.69,4.69,0,0,0,1.59-3.78,4.61,4.61,0,0,0-1.59-3.76,7.21,7.21,0,0,0-4.71-1.33h-8.61l3.11-3.23Z"/><path class="cls-1" d="M1332.69,608h16v5.46h-22.77v-29.4h22.22v5.46h-15.45Zm-.51-12.14h14.16v5.34h-14.16Z"/><path class="cls-1" d="M1354.11,613.46v-29.4h12.72a16.65,16.65,0,0,1,6.81,1.28,10,10,0,0,1,4.41,3.68,11.18,11.18,0,0,1,0,11.36,9.83,9.83,0,0,1-4.41,3.61,17,17,0,0,1-6.81,1.24h-9l3.11-2.94v11.17ZM1361,603l-3.11-3.23h8.61a7.19,7.19,0,0,0,4.71-1.34,4.69,4.69,0,0,0,1.59-3.78,4.61,4.61,0,0,0-1.59-3.76,7.19,7.19,0,0,0-4.71-1.33h-8.61l3.11-3.23Zm11.89,10.42-7.39-10.67h7.3l7.4,10.67Z"/><path class="cls-1" d="M1385,613.46v-29.4h6.84v23.86h14.66v5.54Z"/><path class="cls-1" d="M1414.71,613.46v-12l1.56,4.11-13-21.5h7.26l9.92,16.46h-4.16l10-16.46h6.64l-12.9,21.5,1.56-4.11v12Z"/><path class="cls-1" d="M1450.33,613.8a4,4,0,0,1-2.92-1.14,3.63,3.63,0,0,1-1.16-2.69,3.48,3.48,0,0,1,1.16-2.66,4.09,4.09,0,0,1,2.92-1.07,4,4,0,0,1,2.88,1.07,3.54,3.54,0,0,1,1.11,2.66,3.7,3.7,0,0,1-1.11,2.69A3.87,3.87,0,0,1,1450.33,613.8Zm-2.65-10.59-1.26-19.15h7.77l-1.3,19.15Z"/><path class="cls-1" d="M692.23,663.57,686,645.37h1.41l5.87,17.39h-.7l6.06-17.39H700l6,17.39h-.68l5.93-17.39h1.3l-6.16,18.2h-1.41l-5.82-16.83h.34l-5.83,16.83Z"/><path class="cls-1" d="M720.39,663.67a7.28,7.28,0,0,1-3.63-.88,6.46,6.46,0,0,1-2.47-2.45,7,7,0,0,1-.9-3.56,7.36,7.36,0,0,1,.85-3.57,6.22,6.22,0,0,1,2.33-2.44,6.41,6.41,0,0,1,3.32-.88,6.49,6.49,0,0,1,3.32.86,6.07,6.07,0,0,1,2.31,2.4,7.29,7.29,0,0,1,.85,3.58,1.11,1.11,0,0,1,0,.17c0,.06,0,.12,0,.19h-12v-1h11.28l-.52.49a5.59,5.59,0,0,0-.66-2.84,5.15,5.15,0,0,0-1.86-2,5.42,5.42,0,0,0-5.4,0,5,5,0,0,0-1.86,2,6,6,0,0,0-.67,2.87v.23a5.82,5.82,0,0,0,.74,2.95,5.19,5.19,0,0,0,2,2,6.11,6.11,0,0,0,3,.71,6.39,6.39,0,0,0,2.44-.47,4.8,4.8,0,0,0,1.91-1.43l.75.86a5.54,5.54,0,0,1-2.22,1.65A7.53,7.53,0,0,1,720.39,663.67Z"/><path class="cls-1" d="M729.07,650l1-4.39.13.75a1.12,1.12,0,0,1-.82-.31A1.1,1.1,0,1,1,731,644.5a1.07,1.07,0,0,1,.3.76,2.4,2.4,0,0,1,0,.37,2.33,2.33,0,0,1-.08.36c0,.12-.08.28-.13.47L730,650Z"/><path class="cls-1" d="M735.52,663.57V650h1.25v3.72l-.13-.41a4.79,4.79,0,0,1,1.92-2.53,6.13,6.13,0,0,1,3.38-.88v1.27h-.31a4.5,4.5,0,0,0-3.54,1.42,5.65,5.65,0,0,0-1.27,3.93v7.08Z"/><path class="cls-1" d="M750.91,663.67a7.28,7.28,0,0,1-3.63-.88,6.53,6.53,0,0,1-2.47-2.45,7.07,7.07,0,0,1-.89-3.56,7.36,7.36,0,0,1,.84-3.57,6.29,6.29,0,0,1,2.33-2.44,6.77,6.77,0,0,1,6.64,0,6.16,6.16,0,0,1,2.32,2.4,7.4,7.4,0,0,1,.84,3.58,1,1,0,0,1,0,.17,1.15,1.15,0,0,0,0,.19h-12v-1h11.28l-.52.49a5.59,5.59,0,0,0-.66-2.84,5.15,5.15,0,0,0-1.86-2,5.16,5.16,0,0,0-7.25,2,6,6,0,0,0-.68,2.87v.23a5.82,5.82,0,0,0,.74,2.95,5.32,5.32,0,0,0,2,2,6.15,6.15,0,0,0,3,.71,6.37,6.37,0,0,0,2.43-.47,4.8,4.8,0,0,0,1.91-1.43l.75.86a5.54,5.54,0,0,1-2.22,1.65A7.49,7.49,0,0,1,750.91,663.67Z"/><path class="cls-1" d="M765.37,651.11V650h8.11v1.12Zm2.49,12.46V647.91a3.77,3.77,0,0,1,1-2.71,3.65,3.65,0,0,1,2.79-1,4.91,4.91,0,0,1,1.48.22,3,3,0,0,1,1.2.66l-.52,1a2.31,2.31,0,0,0-.94-.57,3.68,3.68,0,0,0-1.17-.18,2.46,2.46,0,0,0-1.89.69,2.84,2.84,0,0,0-.65,2v2.29l0,.62v12.64Z"/><path class="cls-1" d="M776.13,663.57V650h1.25v3.72l-.13-.41a4.79,4.79,0,0,1,1.92-2.53,6.13,6.13,0,0,1,3.38-.88v1.27h-.31a4.5,4.5,0,0,0-3.54,1.42,5.65,5.65,0,0,0-1.27,3.93v7.08Z"/><path class="cls-1" d="M791.31,663.67a6.78,6.78,0,0,1-3.47-.88,6.52,6.52,0,0,1-2.41-2.45,7.51,7.51,0,0,1,0-7.13,6.49,6.49,0,0,1,2.41-2.44,6.88,6.88,0,0,1,3.47-.88,7,7,0,0,1,3.49.88,6.44,6.44,0,0,1,2.42,2.44,7.66,7.66,0,0,1,0,7.13,6.47,6.47,0,0,1-2.42,2.45A6.86,6.86,0,0,1,791.31,663.67Zm0-1.17a5.61,5.61,0,0,0,2.81-.71,5,5,0,0,0,2-2,6.76,6.76,0,0,0,0-6,4.94,4.94,0,0,0-2-2,5.52,5.52,0,0,0-2.81-.72,5.42,5.42,0,0,0-2.79.72,5.14,5.14,0,0,0-1.95,2,6.59,6.59,0,0,0,0,6,5.19,5.19,0,0,0,1.95,2A5.51,5.51,0,0,0,791.31,662.5Z"/><path class="cls-1" d="M819,649.89a6,6,0,0,1,2.85.64,4.42,4.42,0,0,1,1.88,1.92,6.81,6.81,0,0,1,.68,3.19v7.93h-1.3v-7.83a4.89,4.89,0,0,0-1.12-3.48,4,4,0,0,0-3.12-1.2,5.2,5.2,0,0,0-2.65.65,4.32,4.32,0,0,0-1.72,1.82,6.1,6.1,0,0,0-.59,2.81v7.23h-1.31v-7.83a4.93,4.93,0,0,0-1.11-3.48,4.07,4.07,0,0,0-3.12-1.2,5.18,5.18,0,0,0-2.65.65,4.32,4.32,0,0,0-1.72,1.82,6.1,6.1,0,0,0-.6,2.81v7.23h-1.3V650h1.25v3.75l-.18-.42a5.1,5.1,0,0,1,2-2.51,6,6,0,0,1,3.38-.92,5.58,5.58,0,0,1,3.42,1,4.59,4.59,0,0,1,1.75,3.05l-.44-.18a5.33,5.33,0,0,1,2.06-2.82A6.1,6.1,0,0,1,819,649.89Z"/><path class="cls-1" d="M836.89,663.57v-18.2h1.33v18.2Z"/><path class="cls-1" d="M848.05,663.57v-17h-6.56v-1.19h14.43v1.19h-6.55v17Z"/><path class="cls-1" d="M869.37,663.57v-17h-6.56v-1.19h14.43v1.19h-6.55v17Z"/><path class="cls-1" d="M884.19,663.67a7.28,7.28,0,0,1-3.63-.88,6.46,6.46,0,0,1-2.47-2.45,7,7,0,0,1-.9-3.56,7.25,7.25,0,0,1,.85-3.57,6.26,6.26,0,0,1,2.32-2.44,6.79,6.79,0,0,1,6.65,0,6.07,6.07,0,0,1,2.31,2.4,7.4,7.4,0,0,1,.85,3.58,1.11,1.11,0,0,1,0,.17,1.15,1.15,0,0,0,0,.19h-12v-1h11.29l-.52.49a5.6,5.6,0,0,0-.67-2.84,5.16,5.16,0,0,0-9.11,0,6,6,0,0,0-.67,2.87v.23a5.72,5.72,0,0,0,.74,2.95,5.19,5.19,0,0,0,2,2,6.08,6.08,0,0,0,3,.71,6.3,6.3,0,0,0,2.43-.47,4.73,4.73,0,0,0,1.91-1.43l.76.86a5.5,5.5,0,0,1-2.23,1.65A7.44,7.44,0,0,1,884.19,663.67Z"/><path class="cls-1" d="M897.47,663.67a6.5,6.5,0,0,1-2.61-.48,3.74,3.74,0,0,1-1.69-1.37,3.55,3.55,0,0,1-.59-2,3.74,3.74,0,0,1,.48-1.89,3.56,3.56,0,0,1,1.6-1.38,7.15,7.15,0,0,1,3-.53h5v1h-5a4.35,4.35,0,0,0-2.95.78,2.56,2.56,0,0,0-.85,2,2.51,2.51,0,0,0,1,2.08,4.4,4.4,0,0,0,2.78.78,5.14,5.14,0,0,0,2.9-.78,4.58,4.58,0,0,0,1.76-2.26l.36.89a4.69,4.69,0,0,1-1.86,2.35A5.92,5.92,0,0,1,897.47,663.67Zm4.89-.1v-3.1l-.05-.47v-5.09a3.85,3.85,0,0,0-1-2.89,4.16,4.16,0,0,0-3-1,7.2,7.2,0,0,0-4.68,1.72l-.65-.94a7.31,7.31,0,0,1,2.44-1.41,8.82,8.82,0,0,1,3-.51,5.51,5.51,0,0,1,3.88,1.27,5,5,0,0,1,1.35,3.8v8.61Z"/><path class="cls-1" d="M925.86,649.89a6,6,0,0,1,2.85.64,4.44,4.44,0,0,1,1.89,1.92,6.82,6.82,0,0,1,.67,3.19v7.93H930v-7.83a4.89,4.89,0,0,0-1.12-3.48,4,4,0,0,0-3.12-1.2,5.23,5.23,0,0,0-2.65.65,4.29,4.29,0,0,0-1.71,1.82,6.1,6.1,0,0,0-.6,2.81v7.23h-1.3v-7.83a4.93,4.93,0,0,0-1.12-3.48,4.07,4.07,0,0,0-3.12-1.2,5.2,5.2,0,0,0-2.65.65,4.32,4.32,0,0,0-1.72,1.82,6.1,6.1,0,0,0-.6,2.81v7.23H909V650h1.25v3.75l-.18-.42a5.16,5.16,0,0,1,2-2.51,6.06,6.06,0,0,1,3.38-.92,5.58,5.58,0,0,1,3.42,1,4.59,4.59,0,0,1,1.75,3.05l-.44-.18A5.38,5.38,0,0,1,922.2,651,6.1,6.1,0,0,1,925.86,649.89Z"/><path class="cls-1" d="M940.68,663.57l8.37-18.2h1.33l8.37,18.2h-1.43l-7.9-17.37H950l-7.88,17.37Zm3.07-5.13.44-1.11h10.9l.44,1.11Z"/><path class="cls-1" d="M961.64,668.61V650h1.25v4.45l-.21,2.37.26,2.36v9.44Zm6.81-4.94a6.4,6.4,0,0,1-3.24-.83,6.1,6.1,0,0,1-2.29-2.38,8.48,8.48,0,0,1,0-7.36,6.1,6.1,0,0,1,2.29-2.38,6.4,6.4,0,0,1,3.24-.83,6.86,6.86,0,0,1,3.45.87,6.27,6.27,0,0,1,2.39,2.43,7.84,7.84,0,0,1,0,7.18,6.27,6.27,0,0,1-2.39,2.43A6.86,6.86,0,0,1,968.45,663.67Zm-.08-1.17a5.61,5.61,0,0,0,2.81-.71,5.08,5.08,0,0,0,2-2,6.59,6.59,0,0,0,0-6,5,5,0,0,0-2-2,5.52,5.52,0,0,0-2.81-.72,5.42,5.42,0,0,0-2.79.72,5,5,0,0,0-2,2,6.59,6.59,0,0,0,0,6,5.06,5.06,0,0,0,2,2A5.51,5.51,0,0,0,968.37,662.5Z"/><path class="cls-1" d="M984.49,663.67a6.78,6.78,0,0,1-3.47-.88,6.62,6.62,0,0,1-2.42-2.45,7.59,7.59,0,0,1,0-7.13,6.59,6.59,0,0,1,2.42-2.44,6.88,6.88,0,0,1,3.47-.88,7,7,0,0,1,3.49.88,6.42,6.42,0,0,1,2.41,2.44,7.59,7.59,0,0,1,0,7.13,6.44,6.44,0,0,1-2.41,2.45A6.88,6.88,0,0,1,984.49,663.67Zm0-1.17a5.61,5.61,0,0,0,2.81-.71,5.06,5.06,0,0,0,2-2,6.76,6.76,0,0,0,0-6,5,5,0,0,0-2-2,5.52,5.52,0,0,0-2.81-.72,5.42,5.42,0,0,0-2.79.72,5,5,0,0,0-2,2,6.59,6.59,0,0,0,0,6,5.06,5.06,0,0,0,2,2A5.51,5.51,0,0,0,984.49,662.5Z"/><path class="cls-1" d="M995.31,663.57v-19.3h1.3v19.3Z"/><path class="cls-1" d="M1007.4,663.67a6.76,6.76,0,0,1-3.47-.88,6.54,6.54,0,0,1-2.42-2.45,7.51,7.51,0,0,1,0-7.13,6.52,6.52,0,0,1,2.42-2.44,7.3,7.3,0,0,1,7,0,6.44,6.44,0,0,1,2.42,2.44,7.66,7.66,0,0,1,0,7.13,6.47,6.47,0,0,1-2.42,2.45A6.82,6.82,0,0,1,1007.4,663.67Zm0-1.17a5.64,5.64,0,0,0,2.81-.71,5.06,5.06,0,0,0,1.95-2,6.76,6.76,0,0,0,0-6,5,5,0,0,0-1.95-2,5.54,5.54,0,0,0-2.81-.72,5.48,5.48,0,0,0-2.8.72,5.14,5.14,0,0,0-2,2,6.67,6.67,0,0,0,0,6,5.19,5.19,0,0,0,2,2A5.58,5.58,0,0,0,1007.4,662.5Z"/><path class="cls-1" d="M1023.49,663.07a7,7,0,0,1-3.44-.84,6.76,6.76,0,0,1-2.42-9.19,6.35,6.35,0,0,1,2.42-2.32,7.09,7.09,0,0,1,3.44-.83,7,7,0,0,1,3.32.79,5.89,5.89,0,0,1,2.32,2.27,7.61,7.61,0,0,1,0,7,5.94,5.94,0,0,1-2.32,2.29A6.88,6.88,0,0,1,1023.49,663.07Zm.37,5.64a10.67,10.67,0,0,1-3.51-.57,7.17,7.17,0,0,1-2.71-1.58l.7-1a7.21,7.21,0,0,0,2.43,1.45,8.78,8.78,0,0,0,3.06.52,5.52,5.52,0,0,0,4-1.27,5.46,5.46,0,0,0,1.28-4V658.5l.26-2-.21-2V650h1.25v12.12q0,3.4-1.65,5A6.83,6.83,0,0,1,1023.86,668.71Zm-.27-6.81a5.86,5.86,0,0,0,2.89-.69,5,5,0,0,0,2-1.92,5.92,5.92,0,0,0,0-5.66,5,5,0,0,0-2-1.89,6.38,6.38,0,0,0-5.73,0,5,5,0,0,0-2,1.89,6,6,0,0,0,0,5.66,5.08,5.08,0,0,0,2,1.92A5.82,5.82,0,0,0,1023.59,661.9Z"/><path class="cls-1" d="M1036.6,646.69a1,1,0,0,1-.76-.31,1,1,0,0,1-.31-.73,1.08,1.08,0,0,1,1.83-.76,1,1,0,0,1,.3.74,1.05,1.05,0,0,1-.3.75A1,1,0,0,1,1036.6,646.69Zm-.65,16.88V650h1.3v13.58Z"/><path class="cls-1" d="M1041.12,663.57v-.89l9.28-12,.34.44h-9.49V650h10.5v.89l-9.3,12-.39-.44h9.85v1.12Z"/><path class="cls-1" d="M1061.09,663.67a7.28,7.28,0,0,1-3.63-.88,6.46,6.46,0,0,1-2.47-2.45,7,7,0,0,1-.9-3.56,7.36,7.36,0,0,1,.85-3.57,6.22,6.22,0,0,1,2.33-2.44,6.41,6.41,0,0,1,3.32-.88,6.49,6.49,0,0,1,3.32.86,6.07,6.07,0,0,1,2.31,2.4,7.29,7.29,0,0,1,.85,3.58,1.11,1.11,0,0,1,0,.17,1.15,1.15,0,0,0,0,.19h-12v-1h11.28l-.52.49a5.59,5.59,0,0,0-.66-2.84,5.15,5.15,0,0,0-1.86-2,5.42,5.42,0,0,0-5.4,0,5,5,0,0,0-1.86,2,6,6,0,0,0-.67,2.87v.23a5.72,5.72,0,0,0,.74,2.95,5.19,5.19,0,0,0,2,2,6.11,6.11,0,0,0,3,.71,6.3,6.3,0,0,0,2.43-.47,4.76,4.76,0,0,0,1.92-1.43l.75.86a5.54,5.54,0,0,1-2.22,1.65A7.53,7.53,0,0,1,1061.09,663.67Z"/><path class="cls-1" d="M1075.54,651.11V650h8.11v1.12Zm2.5,12.46V647.91a3.77,3.77,0,0,1,1-2.71,3.65,3.65,0,0,1,2.8-1,5,5,0,0,1,1.48.22,3.09,3.09,0,0,1,1.2.66l-.52,1a2.38,2.38,0,0,0-.94-.57,3.68,3.68,0,0,0-1.17-.18,2.5,2.5,0,0,0-1.9.69,2.89,2.89,0,0,0-.65,2v2.29l0,.62v12.64Z"/><path class="cls-1" d="M1091.38,663.67a6.76,6.76,0,0,1-3.47-.88,6.47,6.47,0,0,1-2.42-2.45,7.51,7.51,0,0,1,0-7.13,6.44,6.44,0,0,1,2.42-2.44,7.3,7.3,0,0,1,6.95,0,6.44,6.44,0,0,1,2.42,2.44,7.66,7.66,0,0,1,0,7.13,6.47,6.47,0,0,1-2.42,2.45A6.82,6.82,0,0,1,1091.38,663.67Zm0-1.17a5.58,5.58,0,0,0,2.8-.71,4.93,4.93,0,0,0,2-2,6.67,6.67,0,0,0,0-6,4.88,4.88,0,0,0-2-2,5.8,5.8,0,0,0-5.6,0,5.14,5.14,0,0,0-1.95,2,6.67,6.67,0,0,0,0,6,5.19,5.19,0,0,0,1.95,2A5.55,5.55,0,0,0,1091.38,662.5Z"/><path class="cls-1" d="M1102.19,663.57V650h1.25v3.72l-.13-.41a4.79,4.79,0,0,1,1.92-2.53,6.15,6.15,0,0,1,3.38-.88v1.27h-.31a4.48,4.48,0,0,0-3.53,1.42,5.65,5.65,0,0,0-1.28,3.93v7.08Z"/><path class="cls-1" d="M1116.88,651.11V650H1125v1.12Zm6.19,12.56a3.61,3.61,0,0,1-2.74-1,3.71,3.71,0,0,1-.95-2.7V647h1.3v12.82a2.8,2.8,0,0,0,.65,2,2.41,2.41,0,0,0,1.87.7,3,3,0,0,0,2.11-.75l.54.91a3.29,3.29,0,0,1-1.26.73A5.18,5.18,0,0,1,1123.07,663.67Z"/><path class="cls-1" d="M1136.1,649.89a6.2,6.2,0,0,1,2.9.64,4.45,4.45,0,0,1,1.92,1.92,6.69,6.69,0,0,1,.69,3.19v7.93h-1.3v-7.83a4.81,4.81,0,0,0-1.16-3.48,4.29,4.29,0,0,0-3.24-1.2,5.62,5.62,0,0,0-2.75.65,4.28,4.28,0,0,0-1.78,1.82,6,6,0,0,0-.61,2.81v7.23h-1.3v-19.3h1.3v9.49l-.24-.41a5.16,5.16,0,0,1,2.06-2.54A6.37,6.37,0,0,1,1136.1,649.89Z"/><path class="cls-1" d="M1152.48,663.67a7.28,7.28,0,0,1-3.63-.88,6.46,6.46,0,0,1-2.47-2.45,7,7,0,0,1-.9-3.56,7.25,7.25,0,0,1,.85-3.57,6.26,6.26,0,0,1,2.32-2.44,6.79,6.79,0,0,1,6.65,0,6.07,6.07,0,0,1,2.31,2.4,7.4,7.4,0,0,1,.85,3.58,1.11,1.11,0,0,1,0,.17,1.15,1.15,0,0,0,0,.19h-12v-1h11.29l-.52.49a5.7,5.7,0,0,0-.67-2.84,5.16,5.16,0,0,0-9.11,0,6,6,0,0,0-.67,2.87v.23a5.72,5.72,0,0,0,.74,2.95,5.19,5.19,0,0,0,2,2,6.08,6.08,0,0,0,3,.71,6.3,6.3,0,0,0,2.43-.47,4.73,4.73,0,0,0,1.91-1.43l.76.86a5.54,5.54,0,0,1-2.22,1.65A7.53,7.53,0,0,1,1152.48,663.67Z"/><path class="cls-1" d="M1170.91,662.37h11.23v1.2h-12.56v-18.2h12.17v1.19h-10.84Zm-.16-8.63h9.86v1.17h-9.86Z"/><path class="cls-1" d="M1186.56,663.57V650h1.25v3.72l-.13-.41a4.79,4.79,0,0,1,1.92-2.53,6.13,6.13,0,0,1,3.38-.88v1.27h-.31a4.5,4.5,0,0,0-3.54,1.42,5.7,5.7,0,0,0-1.27,3.93v7.08Z"/><path class="cls-1" d="M1196.57,663.57V650h1.25v3.72l-.13-.41a4.79,4.79,0,0,1,1.92-2.53,6.13,6.13,0,0,1,3.38-.88v1.27h-.31a4.47,4.47,0,0,0-3.53,1.42,5.65,5.65,0,0,0-1.28,3.93v7.08Z"/><path class="cls-1" d="M1211.75,663.67a6.81,6.81,0,0,1-3.47-.88,6.52,6.52,0,0,1-2.41-2.45,7.51,7.51,0,0,1,0-7.13,6.49,6.49,0,0,1,2.41-2.44,7.32,7.32,0,0,1,7,0,6.44,6.44,0,0,1,2.42,2.44,7.66,7.66,0,0,1,0,7.13,6.47,6.47,0,0,1-2.42,2.45A6.83,6.83,0,0,1,1211.75,663.67Zm0-1.17a5.61,5.61,0,0,0,2.81-.71,5,5,0,0,0,2-2,6.76,6.76,0,0,0,0-6,4.94,4.94,0,0,0-2-2,5.52,5.52,0,0,0-2.81-.72,5.42,5.42,0,0,0-2.79.72,5.14,5.14,0,0,0-2,2,6.59,6.59,0,0,0,0,6,5.19,5.19,0,0,0,2,2A5.51,5.51,0,0,0,1211.75,662.5Z"/><path class="cls-1" d="M1222.57,663.57V650h1.25v3.72l-.13-.41a4.79,4.79,0,0,1,1.92-2.53,6.13,6.13,0,0,1,3.38-.88v1.27h-.31a4.47,4.47,0,0,0-3.53,1.42,5.65,5.65,0,0,0-1.28,3.93v7.08Z"/><path class="cls-1" d="M1232.4,663.67a1.07,1.07,0,0,1-.77-.32,1.13,1.13,0,0,1-.32-.8,1.08,1.08,0,0,1,1.09-1.09,1.08,1.08,0,0,1,.77.31,1.06,1.06,0,0,1,.32.78,1.13,1.13,0,0,1-.32.8A1.09,1.09,0,0,1,1232.4,663.67Z"/><path class="cls-1" d="M776.2,694.77v-18.2h6.52a9.71,9.71,0,0,1,3.93.72,5.7,5.7,0,0,1,2.52,2.1,6.61,6.61,0,0,1,0,6.59,5.57,5.57,0,0,1-2.52,2.1,9.54,9.54,0,0,1-3.93.73h-5.8l.6-.62v6.58Zm1.32-6.5-.6-.65h5.8a6.72,6.72,0,0,0,4.46-1.29,5.12,5.12,0,0,0,0-7.28,6.72,6.72,0,0,0-4.46-1.29h-5.8l.6-.65Z"/><path class="cls-1" d="M794.37,694.77v-19.3h1.3v19.3Z"/><path class="cls-1" d="M806.67,694.87A7.28,7.28,0,0,1,803,694a6.46,6.46,0,0,1-2.47-2.45,7,7,0,0,1-.9-3.56,7.36,7.36,0,0,1,.85-3.57,6.29,6.29,0,0,1,2.33-2.44,6.41,6.41,0,0,1,3.32-.88,6.49,6.49,0,0,1,3.32.86,6.07,6.07,0,0,1,2.31,2.4,7.29,7.29,0,0,1,.85,3.58,1.11,1.11,0,0,1,0,.17c0,.06,0,.12,0,.19h-12v-1h11.28l-.52.49a5.59,5.59,0,0,0-.66-2.84,5.15,5.15,0,0,0-1.86-2,5.42,5.42,0,0,0-5.4,0,5,5,0,0,0-1.86,2,6,6,0,0,0-.67,2.87V688a5.72,5.72,0,0,0,.74,3,5.19,5.19,0,0,0,2,2,6.11,6.11,0,0,0,3,.71,6.3,6.3,0,0,0,2.43-.47A4.76,4.76,0,0,0,811,691.8l.75.86a5.54,5.54,0,0,1-2.22,1.65A7.53,7.53,0,0,1,806.67,694.87Z"/><path class="cls-1" d="M820,694.87a6.54,6.54,0,0,1-2.61-.48,3.74,3.74,0,0,1-1.69-1.37,3.55,3.55,0,0,1-.59-2,3.65,3.65,0,0,1,.49-1.89,3.53,3.53,0,0,1,1.59-1.38,7.15,7.15,0,0,1,3-.53h5v1h-5a4.35,4.35,0,0,0-2.95.78,2.57,2.57,0,0,0-.85,2,2.51,2.51,0,0,0,1,2.08,4.4,4.4,0,0,0,2.78.78A5.14,5.14,0,0,0,823,693a4.58,4.58,0,0,0,1.76-2.26l.36.89a4.69,4.69,0,0,1-1.86,2.35A5.92,5.92,0,0,1,820,694.87Zm4.89-.1v-3.1l-.05-.46v-5.1a3.81,3.81,0,0,0-1-2.89,4.14,4.14,0,0,0-3-1,7.26,7.26,0,0,0-4.68,1.72l-.65-.94a7.31,7.31,0,0,1,2.44-1.41,8.86,8.86,0,0,1,3-.51,5.49,5.49,0,0,1,3.88,1.27,5,5,0,0,1,1.35,3.8v8.61Z"/><path class="cls-1" d="M834.88,694.87a9.82,9.82,0,0,1-3.16-.49,6.27,6.27,0,0,1-2.28-1.25l.6-1a6.88,6.88,0,0,0,2.08,1.16,8.05,8.05,0,0,0,2.81.48A5.2,5.2,0,0,0,838,693a2.19,2.19,0,0,0,.93-1.84,1.76,1.76,0,0,0-.48-1.31,3,3,0,0,0-1.29-.74,11.63,11.63,0,0,0-1.76-.43c-.65-.12-1.29-.24-1.93-.38a8,8,0,0,1-1.77-.6,3.3,3.3,0,0,1-1.28-1.08,3.15,3.15,0,0,1-.48-1.83,3.23,3.23,0,0,1,.57-1.87,3.92,3.92,0,0,1,1.71-1.34,7.07,7.07,0,0,1,2.86-.51,9.18,9.18,0,0,1,2.57.37,6.44,6.44,0,0,1,2.09,1l-.6,1a5.38,5.38,0,0,0-1.92-.94,8.33,8.33,0,0,0-2.16-.29,4.7,4.7,0,0,0-2.9.73,2.22,2.22,0,0,0-.92,1.82,1.92,1.92,0,0,0,.48,1.37,3.08,3.08,0,0,0,1.28.78,12,12,0,0,0,1.77.44c.64.11,1.29.24,1.93.38a8.26,8.26,0,0,1,1.76.58,3.25,3.25,0,0,1,1.29,1,3,3,0,0,1,.48,1.78,3.17,3.17,0,0,1-.61,2,3.91,3.91,0,0,1-1.81,1.3A8.07,8.07,0,0,1,834.88,694.87Z"/><path class="cls-1" d="M849.38,694.87a7.24,7.24,0,0,1-3.62-.88,6.46,6.46,0,0,1-2.47-2.45,7,7,0,0,1-.9-3.56,7.25,7.25,0,0,1,.85-3.57,6.26,6.26,0,0,1,2.32-2.44,6.79,6.79,0,0,1,6.65,0,6.13,6.13,0,0,1,2.31,2.4,7.4,7.4,0,0,1,.84,3.58,1,1,0,0,1,0,.17,1.15,1.15,0,0,0,0,.19h-12v-1h11.29l-.52.49a5.7,5.7,0,0,0-.67-2.84,5.15,5.15,0,0,0-1.86-2,5.16,5.16,0,0,0-7.25,2,6,6,0,0,0-.68,2.87V688a5.73,5.73,0,0,0,.75,3,5.19,5.19,0,0,0,2,2,6.08,6.08,0,0,0,3,.71,6.3,6.3,0,0,0,2.43-.47,4.73,4.73,0,0,0,1.91-1.43l.76.86a5.5,5.5,0,0,1-2.23,1.65A7.49,7.49,0,0,1,849.38,694.87Z"/><path class="cls-1" d="M866.08,694.77V681.19h1.24v3.72l-.13-.41a4.8,4.8,0,0,1,1.93-2.53,6.13,6.13,0,0,1,3.38-.88v1.27h-.31a4.5,4.5,0,0,0-3.54,1.42,5.65,5.65,0,0,0-1.27,3.93v7.08Z"/><path class="cls-1" d="M881.47,694.87a7.28,7.28,0,0,1-3.63-.88,6.46,6.46,0,0,1-2.47-2.45,7,7,0,0,1-.9-3.56,7.36,7.36,0,0,1,.85-3.57,6.29,6.29,0,0,1,2.33-2.44,6.41,6.41,0,0,1,3.32-.88,6.49,6.49,0,0,1,3.32.86,6.07,6.07,0,0,1,2.31,2.4,7.29,7.29,0,0,1,.85,3.58,1.11,1.11,0,0,1,0,.17c0,.06,0,.12,0,.19h-12v-1h11.28l-.52.49a5.59,5.59,0,0,0-.66-2.84,5.15,5.15,0,0,0-1.86-2,5.42,5.42,0,0,0-5.4,0,5,5,0,0,0-1.86,2,6,6,0,0,0-.67,2.87V688a5.72,5.72,0,0,0,.74,3,5.19,5.19,0,0,0,2,2,6.11,6.11,0,0,0,3,.71,6.3,6.3,0,0,0,2.43-.47,4.76,4.76,0,0,0,1.92-1.43l.75.86a5.54,5.54,0,0,1-2.22,1.65A7.53,7.53,0,0,1,881.47,694.87Z"/><path class="cls-1" d="M891.48,699.81V681.19h1.25v4.45l-.21,2.37.26,2.36v9.44Zm6.81-4.94a6.4,6.4,0,0,1-3.24-.83,6.1,6.1,0,0,1-2.29-2.38,8.48,8.48,0,0,1,0-7.36,6.1,6.1,0,0,1,2.29-2.38,6.4,6.4,0,0,1,3.24-.83,6.79,6.79,0,0,1,3.44.87,6.23,6.23,0,0,1,2.4,2.43,7.84,7.84,0,0,1,0,7.18,6.23,6.23,0,0,1-2.4,2.43A6.79,6.79,0,0,1,898.29,694.87Zm-.08-1.17A5.61,5.61,0,0,0,901,693a5.08,5.08,0,0,0,2-2,6.59,6.59,0,0,0,0-6,5,5,0,0,0-2-2,5.52,5.52,0,0,0-2.81-.72,5.42,5.42,0,0,0-2.79.72,5,5,0,0,0-1.95,2,6.59,6.59,0,0,0,0,6,5.06,5.06,0,0,0,1.95,2A5.51,5.51,0,0,0,898.21,693.7Z"/><path class="cls-1" d="M914.33,694.87a6.76,6.76,0,0,1-3.47-.88,6.62,6.62,0,0,1-2.42-2.45,7.51,7.51,0,0,1,0-7.13,6.66,6.66,0,0,1,2.42-2.44,7.3,7.3,0,0,1,6.95,0,6.44,6.44,0,0,1,2.42,2.44,7.59,7.59,0,0,1,0,7.13,6.4,6.4,0,0,1-2.42,2.45A6.82,6.82,0,0,1,914.33,694.87Zm0-1.17a5.61,5.61,0,0,0,2.81-.71,5.06,5.06,0,0,0,2-2,6.76,6.76,0,0,0,0-6,5,5,0,0,0-2-2,5.52,5.52,0,0,0-2.81-.72,5.42,5.42,0,0,0-2.79.72,5,5,0,0,0-1.95,2,6.59,6.59,0,0,0,0,6,5.06,5.06,0,0,0,1.95,2A5.51,5.51,0,0,0,914.33,693.7Z"/><path class="cls-1" d="M925.15,694.77V681.19h1.24v3.72l-.13-.41a4.85,4.85,0,0,1,1.93-2.53,6.13,6.13,0,0,1,3.38-.88v1.27h-.31a4.5,4.5,0,0,0-3.54,1.42,5.65,5.65,0,0,0-1.27,3.93v7.08Z"/><path class="cls-1" d="M933.54,682.31v-1.12h8.12v1.12Zm6.19,12.56a3.62,3.62,0,0,1-2.74-1,3.75,3.75,0,0,1-1-2.7V678.23h1.3v12.82a2.85,2.85,0,0,0,.65,2,2.41,2.41,0,0,0,1.87.7A3,3,0,0,0,942,693l.55.91a3.26,3.26,0,0,1-1.27.73A5.18,5.18,0,0,1,939.73,694.87Z"/><path class="cls-1" d="M950.57,682.31v-1.12h8.12v1.12Zm6.19,12.56a3.62,3.62,0,0,1-2.74-1,3.75,3.75,0,0,1-.95-2.7V678.23h1.3v12.82a2.85,2.85,0,0,0,.65,2,2.41,2.41,0,0,0,1.87.7A3,3,0,0,0,959,693l.54.91a3.15,3.15,0,0,1-1.26.73A5.18,5.18,0,0,1,956.76,694.87Z"/><path class="cls-1" d="M968,694.87a6.76,6.76,0,0,1-3.47-.88,6.54,6.54,0,0,1-2.42-2.45,7.51,7.51,0,0,1,0-7.13A6.59,6.59,0,0,1,964.5,682a7.3,7.3,0,0,1,7,0,6.51,6.51,0,0,1,2.42,2.44,7.66,7.66,0,0,1,0,7.13,6.47,6.47,0,0,1-2.42,2.45A6.82,6.82,0,0,1,968,694.87Zm0-1.17a5.64,5.64,0,0,0,2.81-.71,5.06,5.06,0,0,0,2-2,6.76,6.76,0,0,0,0-6,5,5,0,0,0-2-2,5.54,5.54,0,0,0-2.81-.72,5.48,5.48,0,0,0-2.8.72,5.14,5.14,0,0,0-1.95,2,6.67,6.67,0,0,0,0,6,5.19,5.19,0,0,0,1.95,2A5.58,5.58,0,0,0,968,693.7Z"/><path class="cls-1" d="M985.88,694.77v-18.2H987l8.45,14.58h-.6l8.43-14.58h1.09l0,18.2h-1.3l0-16.2h.36l-8,13.78h-.65l-8-13.78h.39v16.2Z"/><path class="cls-1" d="M1015.83,694.87a7.22,7.22,0,0,1-3.62-.88,6.39,6.39,0,0,1-2.47-2.45,7,7,0,0,1-.9-3.56,7.36,7.36,0,0,1,.84-3.57A6.36,6.36,0,0,1,1012,682a6.77,6.77,0,0,1,6.64,0,6.09,6.09,0,0,1,2.32,2.4,7.4,7.4,0,0,1,.84,3.58,1,1,0,0,1,0,.17,1.15,1.15,0,0,0,0,.19h-12v-1h11.28l-.51.49a5.7,5.7,0,0,0-.67-2.84,5.15,5.15,0,0,0-1.86-2,5.16,5.16,0,0,0-7.25,2,6,6,0,0,0-.68,2.87V688a5.82,5.82,0,0,0,.74,3,5.28,5.28,0,0,0,2,2,6.08,6.08,0,0,0,3,.71,6.3,6.3,0,0,0,2.43-.47,4.8,4.8,0,0,0,1.91-1.43l.76.86a5.5,5.5,0,0,1-2.23,1.65A7.49,7.49,0,0,1,1015.83,694.87Z"/><path class="cls-1" d="M1031.07,694.87a6.77,6.77,0,0,1-3.42-.87,6.3,6.3,0,0,1-2.4-2.43,7.71,7.71,0,0,1,0-7.19,6.34,6.34,0,0,1,2.4-2.42,6.77,6.77,0,0,1,3.42-.87,6.43,6.43,0,0,1,3.24.83,6.05,6.05,0,0,1,2.28,2.37,7.46,7.46,0,0,1,.85,3.69,7.76,7.76,0,0,1-.83,3.67,6,6,0,0,1-2.28,2.39A6.45,6.45,0,0,1,1031.07,694.87Zm.08-1.17a5.51,5.51,0,0,0,2.79-.71,5.06,5.06,0,0,0,2-2,6.59,6.59,0,0,0,0-6,5,5,0,0,0-2-2,5.42,5.42,0,0,0-2.79-.72,5.48,5.48,0,0,0-2.8.72,5.14,5.14,0,0,0-1.95,2,6.67,6.67,0,0,0,0,6,5.19,5.19,0,0,0,1.95,2A5.58,5.58,0,0,0,1031.15,693.7Zm5.48,1.07v-4.45l.24-2.36-.26-2.37V675.47h1.3v19.3Z"/><path class="cls-1" d="M1044,677.89a1,1,0,0,1-.75-.31,1,1,0,0,1-.31-.73,1.06,1.06,0,0,1,1.06-1.06,1,1,0,0,1,.77.3,1,1,0,0,1,.3.74,1.05,1.05,0,0,1-.3.75A1,1,0,0,1,1044,677.89Zm-.65,16.88V681.19h1.3v13.58Z"/><path class="cls-1" d="M1053.84,694.87a6.54,6.54,0,0,1-2.61-.48,3.8,3.8,0,0,1-1.69-1.37,3.55,3.55,0,0,1-.58-2,3.74,3.74,0,0,1,.48-1.89,3.51,3.51,0,0,1,1.6-1.38,7.09,7.09,0,0,1,3-.53h5v1h-5a4.37,4.37,0,0,0-3,.78,2.57,2.57,0,0,0-.84,2,2.51,2.51,0,0,0,1,2.08,4.36,4.36,0,0,0,2.78.78,5.17,5.17,0,0,0,2.9-.78,4.62,4.62,0,0,0,1.75-2.26l.36.89a4.72,4.72,0,0,1-1.85,2.35A6,6,0,0,1,1053.84,694.87Zm4.89-.1v-3.1l0-.46v-5.1a3.81,3.81,0,0,0-1-2.89,4.14,4.14,0,0,0-3-1A7.26,7.26,0,0,0,1050,684l-.65-.94a7.41,7.41,0,0,1,2.44-1.41,8.86,8.86,0,0,1,3-.51,5.48,5.48,0,0,1,3.88,1.27,5,5,0,0,1,1.35,3.8v8.61Z"/><path class="cls-1" d="M1075.92,694.77v-17h-6.55v-1.19h14.43v1.19h-6.55v17Z"/><path class="cls-1" d="M1090.74,694.87a7.28,7.28,0,0,1-3.63-.88,6.46,6.46,0,0,1-2.47-2.45,7,7,0,0,1-.89-3.56,7.36,7.36,0,0,1,.84-3.57,6.29,6.29,0,0,1,2.33-2.44,6.77,6.77,0,0,1,6.64,0,6.07,6.07,0,0,1,2.31,2.4,7.29,7.29,0,0,1,.85,3.58c0,.05,0,.11,0,.17a1.11,1.11,0,0,0,0,.19h-12v-1H1096l-.52.49a5.59,5.59,0,0,0-.66-2.84,5.15,5.15,0,0,0-1.86-2,5.16,5.16,0,0,0-7.26,2,6,6,0,0,0-.67,2.87V688a5.82,5.82,0,0,0,.74,3,5.19,5.19,0,0,0,2,2,6.14,6.14,0,0,0,3,.71,6.39,6.39,0,0,0,2.44-.47,4.8,4.8,0,0,0,1.91-1.43l.75.86a5.54,5.54,0,0,1-2.22,1.65A7.49,7.49,0,0,1,1090.74,694.87Z"/><path class="cls-1" d="M1104,694.87a6.54,6.54,0,0,1-2.61-.48,3.74,3.74,0,0,1-1.69-1.37,3.55,3.55,0,0,1-.58-2,3.74,3.74,0,0,1,.48-1.89,3.51,3.51,0,0,1,1.6-1.38,7.09,7.09,0,0,1,3-.53h5v1h-5a4.35,4.35,0,0,0-3,.78,2.57,2.57,0,0,0-.84,2,2.5,2.5,0,0,0,1,2.08,4.41,4.41,0,0,0,2.79.78,5.11,5.11,0,0,0,2.89-.78,4.58,4.58,0,0,0,1.76-2.26l.36.89a4.69,4.69,0,0,1-1.86,2.35A5.9,5.9,0,0,1,1104,694.87Zm4.89-.1v-3.1l-.05-.46v-5.1a3.81,3.81,0,0,0-1-2.89,4.14,4.14,0,0,0-3-1,7.26,7.26,0,0,0-4.68,1.72l-.65-.94a7.41,7.41,0,0,1,2.44-1.41,8.86,8.86,0,0,1,3-.51,5.49,5.49,0,0,1,3.88,1.27,5,5,0,0,1,1.35,3.8v8.61Z"/><path class="cls-1" d="M1132.42,681.09a5.92,5.92,0,0,1,2.84.64,4.39,4.39,0,0,1,1.89,1.92,6.82,6.82,0,0,1,.67,3.19v7.93h-1.3v-7.83a4.93,4.93,0,0,0-1.11-3.48,4.07,4.07,0,0,0-3.12-1.2,5.24,5.24,0,0,0-2.66.65,4.36,4.36,0,0,0-1.71,1.82,6.1,6.1,0,0,0-.6,2.81v7.23H1126v-7.83a4.89,4.89,0,0,0-1.12-3.48,4,4,0,0,0-3.12-1.2,5.23,5.23,0,0,0-2.65.65,4.32,4.32,0,0,0-1.72,1.82,6.1,6.1,0,0,0-.59,2.81v7.23h-1.3V681.19h1.24v3.75l-.18-.42a5.16,5.16,0,0,1,2-2.51,6.08,6.08,0,0,1,3.38-.92,5.54,5.54,0,0,1,3.42,1,4.64,4.64,0,0,1,1.76,3l-.44-.18a5.31,5.31,0,0,1,2-2.82A6.13,6.13,0,0,1,1132.42,681.09Z"/><path class="cls-1" d="M1143.7,694.87a1,1,0,0,1-.75-.32,1.06,1.06,0,0,1-.32-.75,1,1,0,0,1,.32-.75,1,1,0,0,1,.75-.31,1.06,1.06,0,0,1,.78.31,1,1,0,0,1,.31.75,1.05,1.05,0,0,1-.31.75A1.06,1.06,0,0,1,1143.7,694.87Zm-.49-5.33-.26-13h1.5l-.26,13Z"/></svg>